<?xml version="1.0" standalone="no"?>
<!DOCTYPE svg PUBLIC "-//W3C//DTD SVG 20010904//EN"
 "http://www.w3.org/TR/2001/REC-SVG-20010904/DTD/svg10.dtd">
<svg version="1.0" xmlns="http://www.w3.org/2000/svg"
 width="260.000000pt" height="260.000000pt" viewBox="0 0 260.000000 260.000000"
 preserveAspectRatio="xMidYMid meet">
<metadata>
Created by potrace 1.11, written by Peter Selinger 2001-2013
</metadata>
<g transform="translate(0.000000,260.000000) scale(0.100000,-0.100000)"
fill="#000000" stroke="none">
<path d="M1724 2446 c-99 -48 -199 -131 -239 -200 -33 -56 -68 -172 -60 -198
10 -30 -4 -128 -18 -128 -7 0 -28 13 -47 28 -47 39 -196 112 -228 112 -30 0
-118 -14 -277 -46 -204 -40 -419 -68 -423 -55 -2 7 -57 11 -171 11 -174 0
-261 -7 -261 -21 0 -4 86 -5 190 -2 176 6 190 5 184 -11 -5 -14 -1 -16 27 -12
19 3 102 14 184 25 83 12 182 27 220 35 39 8 88 17 110 21 22 3 77 15 123 27
l83 21 113 -57 c69 -34 127 -71 151 -96 37 -38 41 -47 51 -125 13 -93 13 -199
1 -211 -13 -14 -41 11 -48 42 -3 16 -11 39 -17 50 -9 17 -8 35 3 78 11 42 12
61 4 74 -17 25 -69 65 -76 58 -5 -5 26 -34 60 -57 5 -4 2 -26 -7 -53 -9 -26
-16 -52 -16 -60 0 -7 -7 -36 -16 -65 -13 -44 -18 -52 -37 -49 -24 3 -25 10
-12 88 5 33 4 41 -4 30 -6 -8 -13 -35 -17 -60 -6 -45 -46 -120 -64 -120 -5 0
-17 11 -26 25 -14 21 -15 32 -5 65 6 22 16 58 22 80 11 37 9 42 -17 74 -38 46
-50 45 -19 -1 14 -20 23 -43 21 -52 -3 -9 -12 -48 -21 -86 -9 -39 -25 -86 -36
-104 -20 -34 -21 -34 -40 -14 -33 32 -43 97 -22 140 l17 36 -32 28 -31 28 -71
-24 c-156 -53 -370 -75 -453 -46 -31 11 -50 11 -105 0 -37 -7 -76 -13 -86 -14
-22 -2 -35 -25 -14 -25 7 0 45 7 84 16 79 19 107 15 97 -13 -5 -16 -4 -16 9 1
14 17 20 18 61 8 85 -22 171 -11 399 50 65 17 81 18 94 7 18 -15 13 -42 -17
-93 -39 -67 -294 -166 -470 -184 -154 -15 -166 -31 -176 -237 -3 -66 -10 -126
-16 -133 -6 -7 -65 -51 -133 -97 -76 -53 -130 -98 -144 -120 -20 -33 -21 -41
-11 -96 14 -84 45 -132 150 -232 50 -47 91 -89 91 -92 0 -3 -11 -16 -24 -28
-34 -30 -266 -364 -266 -382 0 -4 198 -5 440 -3 242 1 440 5 440 8 -1 3 -20
18 -43 33 -92 61 -298 214 -437 324 -200 159 -340 322 -340 394 0 30 34 99 48
99 4 0 25 16 46 35 22 19 45 35 51 35 7 0 32 14 56 32 72 52 319 218 325 218
3 0 22 11 42 25 l37 25 49 -52 c52 -56 141 -225 131 -249 -4 -12 -88 -58 -220
-121 -16 -8 -40 -20 -51 -28 -19 -12 -27 -10 -69 14 -27 14 -51 23 -54 20 -3
-4 -1 -9 6 -11 6 -2 40 -26 75 -52 84 -64 203 -193 351 -381 67 -85 130 -163
140 -172 9 -10 17 -22 17 -26 0 -4 15 -24 32 -43 18 -20 49 -57 68 -82 34 -43
37 -45 87 -45 51 1 52 1 104 67 29 36 78 90 109 118 31 29 65 69 76 88 10 19
24 35 30 35 14 0 30 -63 39 -155 8 -77 38 -155 62 -155 8 0 13 3 11 8 -29 55
-43 100 -54 167 -7 44 -15 94 -19 110 -6 29 -5 31 42 43 47 13 87 29 188 78
28 13 53 24 56 24 7 0 25 -80 35 -153 4 -30 2 -52 -5 -61 -10 -12 -3 -17 38
-31 27 -9 55 -23 62 -31 6 -8 33 -25 58 -38 25 -12 84 -43 131 -69 55 -30 97
-47 120 -47 32 0 26 5 -60 49 -170 86 -294 157 -308 174 -6 7 -15 48 -21 92
-7 44 -14 92 -17 106 -4 23 2 30 43 56 26 17 64 36 84 42 62 20 104 73 150
190 79 199 121 386 118 526 -2 136 -3 133 36 152 41 20 69 82 91 203 7 41 18
90 25 109 14 40 7 151 -15 236 -8 33 -17 96 -19 140 -5 81 -11 99 -111 305 -8
17 -28 30 -62 41 -28 9 -62 24 -75 32 -36 23 -130 37 -249 37 -105 0 -107 0
-196 -44z m396 -6 c11 -7 4 -10 -26 -10 -41 0 -72 -20 -60 -39 4 -5 22 -7 41
-4 22 3 47 0 69 -11 19 -9 38 -16 43 -16 8 0 59 -39 97 -75 36 -33 86 -108 86
-127 0 -20 -16 -25 -22 -6 -2 6 -10 8 -16 4 -17 -10 -15 -53 2 -59 8 -3 17
-21 21 -39 4 -18 11 -38 16 -44 5 -6 15 -46 24 -89 8 -43 17 -86 20 -97 5 -13
1 -18 -12 -18 -17 0 -18 -12 -18 -144 0 -108 -3 -148 -13 -158 -11 -11 -13 -8
-10 17 4 42 -28 48 -37 7 -3 -16 -25 -50 -48 -75 -23 -26 -53 -60 -66 -77 -13
-18 -35 -37 -48 -43 -12 -5 -23 -16 -23 -24 0 -22 34 -14 73 18 34 28 38 29
45 12 4 -10 7 -70 6 -133 -1 -90 -7 -139 -29 -225 -15 -60 -32 -119 -37 -130
-12 -27 -111 -86 -218 -129 -49 -20 -162 -47 -169 -40 -2 2 3 12 12 22 18 19
23 52 9 52 -12 0 -47 -46 -124 -164 -39 -60 -79 -117 -90 -128 -10 -10 -18
-21 -18 -25 0 -5 -15 -24 -33 -43 -18 -19 -57 -66 -87 -105 -30 -38 -64 -78
-77 -88 -13 -10 -30 -32 -38 -48 -9 -16 -22 -29 -30 -29 -7 0 -22 -14 -32 -30
-9 -17 -21 -30 -25 -30 -4 0 -8 -5 -8 -11 0 -16 -22 -34 -45 -36 -13 -1 -33
15 -57 45 -21 26 -53 67 -73 90 -19 24 -35 48 -35 53 0 5 -7 9 -15 9 -8 0 -15
4 -15 8 0 5 -20 33 -45 63 -24 30 -59 73 -77 97 -18 24 -52 65 -75 91 -55 62
-60 92 -16 102 18 3 43 14 55 23 100 73 187 128 211 133 15 3 27 11 27 17 1
44 164 143 253 153 65 7 71 11 57 28 -7 8 -28 15 -46 15 -24 0 -32 4 -28 14
12 30 -17 24 -83 -18 -37 -25 -76 -52 -85 -62 -10 -10 -20 -15 -23 -13 -2 3 2
36 10 74 8 39 15 94 15 123 0 77 -20 192 -38 222 -50 80 -112 137 -214 196
-18 11 -16 14 30 37 l51 26 18 -37 c15 -32 23 -37 56 -40 25 -2 45 2 56 12 11
10 21 12 31 6 28 -18 60 -11 72 15 11 25 29 33 76 33 13 1 30 9 37 19 13 17
15 17 38 -5 21 -19 29 -22 45 -13 28 15 42 14 42 -4 0 -32 54 -105 77 -105 8
0 17 -8 21 -17 4 -10 10 26 13 82 4 55 12 158 18 229 10 121 9 147 -4 134 -6
-6 -37 -324 -37 -375 1 -42 -11 -42 -37 0 -25 41 -41 134 -50 288 -4 80 -11
122 -21 134 -11 13 -14 37 -12 89 4 78 29 128 84 167 45 32 34 64 -13 39 -10
-6 -19 -8 -19 -5 0 11 53 85 61 85 5 0 9 5 9 11 0 16 35 43 114 91 44 25 71
37 74 30 5 -16 23 -15 63 5 19 9 52 20 74 24 63 10 208 10 225 -1z m121 -67
c13 -15 12 -15 -8 -4 -24 12 -29 21 -14 21 5 0 15 -7 22 -17z m-1331 -915 c25
-13 77 -55 116 -93 93 -92 109 -136 107 -290 -1 -60 -7 -138 -14 -172 -10 -59
-15 -66 -68 -111 -48 -42 -130 -103 -168 -125 -8 -5 -11 31 -10 145 l2 153
-38 76 c-21 42 -46 85 -56 95 -9 11 -35 44 -58 74 -23 30 -71 86 -107 124 -36
39 -64 71 -63 71 1 1 46 7 99 14 61 8 115 21 145 36 60 30 59 30 113 3z m-353
-119 c68 -71 81 -91 64 -97 -6 -2 -33 -19 -59 -38 -26 -19 -59 -39 -74 -45
-16 -6 -28 -14 -28 -19 0 -7 -74 -60 -84 -60 -8 0 -6 173 3 184 5 6 14 30 20
53 12 44 50 83 82 83 10 0 44 -27 76 -61z m279 -566 c-4 -69 -12 -135 -17
-145 -21 -40 -97 -11 -173 66 -62 62 -62 60 27 105 74 37 151 84 155 93 12 27
14 -7 8 -119z m1327 -23 c-3 -11 -9 -20 -14 -20 -5 0 -9 -6 -9 -14 0 -8 -12
-37 -27 -66 -29 -56 -81 -105 -122 -115 -14 -4 -49 -24 -77 -46 -28 -21 -58
-39 -66 -39 -8 0 -45 -16 -82 -36 -64 -33 -145 -64 -173 -64 -7 0 9 27 35 61
26 33 70 97 98 142 50 80 52 82 100 90 85 14 186 48 259 87 85 45 84 45 78 20z
m-1813 -388 c0 -4 -9 -8 -20 -9 -11 -1 -18 2 -15 8 7 11 35 12 35 1z m20 -32
c0 -5 9 -10 19 -10 11 0 23 -5 26 -11 12 -19 -2 -20 -34 -2 -30 18 -40 33 -21
33 6 0 10 -4 10 -10z m90 -64 c4 -13 20 -26 33 -30 25 -6 43 -41 26 -52 -5 -3
-9 2 -9 10 0 9 -6 16 -14 16 -8 0 -16 7 -20 15 -3 8 -13 15 -21 15 -26 0 -46
25 -32 39 17 17 27 13 37 -13z m-80 -7 c0 -6 -4 -7 -10 -4 -5 3 -10 11 -10 16
0 6 5 7 10 4 6 -3 10 -11 10 -16z m182 -66 c21 -19 24 -37 4 -30 -7 3 -19 0
-25 -6 -16 -16 -26 0 -12 17 7 8 10 20 6 26 -10 16 6 12 27 -7z m46 -48 c0
-14 -4 -25 -9 -25 -5 0 -9 4 -9 9 0 5 -10 7 -22 5 -13 -2 -16 -1 -8 2 8 4 19
13 23 20 13 22 25 16 25 -11z m122 -74 c0 -6 -4 -13 -10 -16 -5 -3 -10 1 -10
9 0 9 5 16 10 16 6 0 10 -4 10 -9z"/>
<path d="M2021 2128 c-44 -118 -70 -140 -221 -183 -43 -12 -73 -10 -53 4 5 3
24 31 41 62 31 54 41 99 24 99 -9 0 -62 -77 -62 -90 0 -5 -17 -22 -39 -39
l-38 -30 -20 22 c-28 31 -43 61 -43 89 0 13 -6 33 -14 44 -14 18 -15 18 -21 2
-8 -21 12 -114 32 -145 18 -27 49 -36 171 -49 34 -3 65 -10 68 -15 3 -5 12 -9
21 -9 15 0 15 2 0 18 -20 22 -6 42 31 42 18 0 22 -4 17 -19 -4 -15 1 -19 32
-25 64 -10 91 -7 151 18 31 13 68 27 81 31 l24 7 -7 -86 c-4 -49 -16 -107 -27
-132 -34 -80 -21 -85 42 -19 24 25 48 45 55 45 6 0 15 7 18 16 18 46 -5 45
-51 -3 -32 -34 -34 -35 -28 -13 9 31 26 145 28 185 1 17 7 36 15 44 18 18 1
35 -26 26 -12 -3 -23 -14 -26 -23 -9 -27 -131 -82 -181 -82 -16 0 -14 5 11 31
16 17 44 37 62 45 18 7 31 18 27 24 -9 15 -53 12 -62 -4 -10 -19 -84 -69 -91
-62 -3 3 13 25 34 48 22 24 46 62 53 86 13 38 13 45 -1 58 -13 14 -16 12 -27
-18z"/>
<path d="M1695 1881 c-7 -13 40 -59 69 -67 13 -3 40 -4 62 -2 32 2 40 7 42 26
3 18 -4 26 -32 37 -39 17 -132 20 -141 6z m70 -11 c3 -6 -1 -13 -9 -16 -21 -8
-49 3 -41 16 8 13 42 13 50 0z m69 -16 c23 -9 20 -24 -4 -24 -11 0 -20 7 -20
15 0 17 2 18 24 9z"/>
<path d="M1972 1838 c-16 -16 -15 -28 2 -28 8 0 16 -7 20 -15 6 -16 69 -21
114 -9 29 8 25 34 -8 51 -32 16 -112 17 -128 1z m63 -19 c4 -6 5 -13 2 -16 -8
-7 -47 7 -47 18 0 13 37 11 45 -2z"/>
<path d="M1793 1773 c9 -2 23 -2 30 0 6 3 -1 5 -18 5 -16 0 -22 -2 -12 -5z"/>
<path d="M2264 1725 c-4 -21 -24 -55 -49 -83 -38 -42 -43 -54 -48 -112 -4 -36
-10 -90 -13 -120 -6 -53 -6 -54 12 -37 14 13 20 39 26 113 6 93 8 98 41 133
42 43 74 141 47 141 -5 0 -12 -16 -16 -35z"/>
<path d="M2015 1740 c3 -5 17 -10 31 -10 13 0 24 5 24 10 0 6 -14 10 -31 10
-17 0 -28 -4 -24 -10z"/>
<path d="M1961 1623 c0 -28 3 -54 8 -58 5 -3 17 -28 26 -56 9 -28 19 -48 21
-46 5 5 -13 65 -28 92 -6 10 -14 42 -18 70 l-8 50 -1 -52z"/>
<path d="M1770 1591 c0 -5 5 -13 10 -16 6 -3 10 -2 10 4 0 5 -4 13 -10 16 -5
3 -10 2 -10 -4z"/>
<path d="M1820 1559 c34 -10 118 -11 123 -1 3 4 -30 7 -72 8 -46 0 -66 -2 -51
-7z"/>
<path d="M1707 1531 c-4 -17 -3 -21 5 -13 5 5 8 16 6 23 -3 8 -7 3 -11 -10z"/>
<path d="M1691 1484 c0 -11 3 -14 6 -6 3 7 2 16 -1 19 -3 4 -6 -2 -5 -13z"/>
<path d="M1763 1469 c-67 -20 -27 -53 51 -43 25 3 68 -2 110 -15 78 -22 96
-19 96 14 0 18 -4 22 -19 18 -10 -3 -32 2 -47 10 -38 19 -150 29 -191 16z"/>
<path d="M1468 1278 c-5 -65 2 -94 46 -211 14 -37 26 -77 26 -88 0 -28 46
-115 65 -123 35 -13 80 -6 93 14 7 11 18 20 26 20 17 0 97 78 151 148 35 45
48 54 107 72 51 15 77 31 112 66 29 28 46 54 46 69 0 35 -17 39 -34 8 -8 -15
-32 -47 -53 -71 -31 -35 -46 -45 -82 -49 -30 -4 -45 -2 -51 7 -7 11 -12 10
-25 -3 -21 -22 -41 -22 -54 1 -6 9 -11 11 -11 5 0 -7 -12 -13 -26 -13 -21 0
-24 4 -19 20 4 11 2 20 -4 20 -13 0 -36 -41 -33 -57 2 -7 -2 -22 -8 -34 -7
-11 -9 -23 -7 -26 3 -3 13 9 22 26 15 30 19 31 62 28 26 -3 49 -9 51 -16 2 -6
-17 -38 -43 -71 -45 -58 -94 -99 -164 -134 -32 -17 -34 -17 -56 4 -14 13 -30
52 -45 108 -12 48 -32 105 -43 127 -15 28 -22 66 -25 128 -2 48 -8 87 -12 87
-4 0 -10 -28 -12 -62z"/>
<path d="M1590 1320 c0 -12 -14 -38 -31 -58 -34 -38 -24 -59 12 -26 10 9 20
15 22 13 2 -2 11 -16 20 -32 19 -29 94 -84 103 -74 3 3 -7 12 -23 20 -44 23
-61 48 -77 111 -17 65 -26 81 -26 46z"/>
<path d="M1690 1240 c-12 -8 -11 -10 8 -10 12 0 22 5 22 10 0 13 -11 13 -30 0z"/>
<path d="M1715 1190 c-8 -13 5 -13 25 0 13 8 13 10 -2 10 -9 0 -20 -4 -23 -10z"/>
<path d="M1170 1906 c0 -2 8 -10 18 -17 15 -13 16 -12 3 4 -13 16 -21 21 -21
13z"/>
<path d="M326 1844 c-4 -9 -4 -19 -1 -22 2 -3 7 3 11 12 4 9 4 19 1 22 -2 3
-7 -3 -11 -12z"/>
<path d="M1232 1833 c14 -16 31 -38 37 -50 11 -22 31 -31 31 -15 0 11 -77 92
-86 92 -4 0 4 -12 18 -27z"/>
<path d="M297 1774 c-4 -4 -7 -17 -7 -28 1 -19 1 -20 11 -3 11 19 8 43 -4 31z"/>
<path d="M277 1704 c-4 -4 -7 -14 -7 -23 0 -11 3 -12 11 -4 6 6 10 16 7 23 -2
6 -7 8 -11 4z"/>
<path d="M246 1589 c-16 -53 -36 -154 -35 -181 l1 -33 9 35 c18 72 39 184 34
188 -2 3 -6 -1 -9 -9z"/>
<path d="M165 1360 l-30 -8 30 -1 c17 0 37 4 45 9 13 9 13 10 0 9 -8 -1 -28
-5 -45 -9z"/>
<path d="M27 1343 c18 -2 48 -2 66 0 17 2 3 4 -33 4 -36 0 -50 -2 -33 -4z"/>
</g>
</svg>
